<?xml version="1.0" encoding="utf-8"?>
<!-- Generator: Adobe Illustrator 27.0.0, SVG Export Plug-In . SVG Version: 6.00 Build 0)  -->
<svg version="1.1" id="assignment" xmlns="http://www.w3.org/2000/svg" xmlns:xlink="http://www.w3.org/1999/xlink" x="0px" y="0px"
	 viewBox="0 0 60 61" style="enable-background:new 0 0 60 61;" xml:space="preserve">
<style type="text/css">
	.st0{fill:#0D88CD;}
	.st1{fill:#52CFFA;}
	.st2{fill:#2AB5E5;}
	.st3{fill:#2F77B4;fill-opacity:0.4392;}
	.st4{fill:#E8A31E;}
	.st5{fill:#F3E36D;}
	.st6{fill:#EDCD39;}
	.st7{fill:#E8A31E;fill-opacity:0.5176;}
	.st8{fill:#C4404E;}
	.st9{fill:url(#kp_00000051385313022160540110000002582622081425462971_);}
	.st10{fill:url(#jp_00000105410823900231626530000004803399847640984752_);}
	.st11{fill:#DF3776;fill-opacity:0.4;}
	.st12{fill:#802C35;}
	.st13{fill:#FFD7DB;}
	.st14{fill:#B22155;}
	.st15{fill:#E3FAC0;}
</style>
<path id="xp" class="st0" d="M34,6.9c-0.5-1.3-1.4-1.7-2.7-1.3L7.5,14.1c-1.3,0.5-1.7,1.4-1.3,2.7l13.1,36.7
	c0.5,1.3,1.4,1.7,2.7,1.3l23.8-8.5c1.3-0.5,1.7-1.4,1.3-2.7L34,6.9z"/>
<path id="wp" class="st1" d="M34.1,6.6c-0.5-1.3-1.4-1.8-2.7-1.3L7.7,13.8c-1.3,0.5-1.8,1.4-1.3,2.7l13.1,36.7
	c0.5,1.3,1.4,1.8,2.7,1.3L46,45.9c1.3-0.5,1.8-1.4,1.3-2.7L34.1,6.6z"/>
<path id="vp" class="st2" d="M31.7,12.6c-0.1-0.4-0.4-0.5-0.8-0.4l-20.5,7.3C10,19.7,9.8,20,10,20.4l0.3,1c0.1,0.4,0.4,0.5,0.8,0.4
	l20.5-7.3c0.4-0.1,0.5-0.4,0.4-0.8L31.7,12.6z"/>
<path id="up" class="st2" d="M33.6,17.8c-0.1-0.4-0.4-0.5-0.8-0.4l-20.5,7.3c-0.4,0.1-0.5,0.4-0.4,0.8l0.3,1
	c0.1,0.4,0.4,0.5,0.8,0.4l20.5-7.3c0.4-0.1,0.5-0.4,0.4-0.8L33.6,17.8z"/>
<path id="tp" class="st2" d="M35.5,23.1c-0.1-0.4-0.4-0.5-0.8-0.4L14.1,30c-0.4,0.1-0.5,0.4-0.4,0.8l0.3,1c0.1,0.4,0.4,0.5,0.8,0.4
	l20.5-7.3c0.4-0.1,0.5-0.4,0.4-0.8L35.5,23.1z"/>
<path id="sp" class="st2" d="M37.3,28.3c-0.1-0.4-0.4-0.5-0.8-0.4L16,35.3c-0.4,0.1-0.5,0.4-0.4,0.8l0.3,1c0.1,0.4,0.4,0.5,0.8,0.4
	l20.5-7.3c0.4-0.1,0.5-0.4,0.4-0.8L37.3,28.3z"/>
<path id="rp" class="st3" d="M17.5,18.1l-2.8,0.6c-1,0.3-1.4,1-1.3,1.9l7.7,34c0.3,0,0.6,0,0.9-0.1l1.7-0.6L17.5,18.1z"/>
<path id="qp" class="st4" d="M43.1,11.6c-0.3-1.4-1.1-1.9-2.5-1.6l-24.7,5.4c-1.4,0.3-1.9,1.1-1.6,2.5l8.3,38
	c0.3,1.4,1.1,1.9,2.5,1.6l24.7-5.4c1.4-0.3,1.9-1.1,1.6-2.5L43.1,11.6z"/>
<path id="pp" class="st5" d="M43.3,11.4C43,10,42.2,9.5,40.8,9.8l-24.7,5.4c-1.4,0.3-1.9,1.1-1.6,2.5l8.3,38
	c0.3,1.4,1.1,1.9,2.5,1.6L50,51.9c1.4-0.3,1.9-1.1,1.6-2.5L43.3,11.4z"/>
<path id="op" class="st6" d="M41.3,17.8c-0.1-0.4-0.3-0.6-0.8-0.5l-22.4,4.9c-0.4,0.1-0.6,0.3-0.5,0.8l1.1,4.9
	c0.1,0.4,0.3,0.6,0.8,0.5l22.4-4.9c0.4-0.1,0.6-0.3,0.5-0.8L41.3,17.8z"/>
<path id="np" class="st6" d="M43.2,26.3c-0.1-0.4-0.3-0.6-0.8-0.5L20,30.8c-0.4,0.1-0.6,0.3-0.5,0.8l1.1,4.9
	c0.1,0.4,0.3,0.6,0.8,0.5L43.8,32c0.4-0.1,0.6-0.3,0.5-0.8L43.2,26.3z"/>
<path id="mp" class="st7" d="M43.4,12c-0.3-1.4-1.1-1.9-2.5-1.6l-19,4.2l2.4,37.2c0.1,1.3,0.8,2,2,2c0.1,0,0.1,0,0.2,0l20.9-2.3
	l0.4-0.4l3.1-4.7L43.4,12z"/>
<path id="lp" class="st8" d="M50.6,8.2c-0.2-1.4-0.9-2-2.3-1.8l-25.1,3c-1.4,0.2-2,0.9-1.8,2.3l4.5,38.7c0.2,1.4,0.9,2,2.3,1.8
	L46.3,50l8-10.1L50.6,8.2z"/>
<linearGradient id="kp_00000117641552120837273870000003327830384483544222_" gradientUnits="userSpaceOnUse" x1="-266.2896" y1="418.6769" x2="-265.9191" y2="418.2937" gradientTransform="matrix(33.0065 0 0 -45.8434 8823.3301 19216.2383)">
	<stop  offset="0" style="stop-color:#FF936B"/>
	<stop  offset="0.8078" style="stop-color:#EA528B"/>
	<stop  offset="1" style="stop-color:#C62662"/>
</linearGradient>
<path id="kp" style="fill:url(#kp_00000117641552120837273870000003327830384483544222_);" d="M50.8,8c-0.2-1.4-0.9-2-2.3-1.8
	l-25.1,3c-1.4,0.2-2,0.9-1.8,2.3l4.5,38.7c0.2,1.4,0.9,2,2.3,1.8l18.2-2.1l8-10.1L50.8,8L50.8,8z"/>
<linearGradient id="jp_00000002349032493514472060000008100599951550550153_" gradientUnits="userSpaceOnUse" x1="-243.3594" y1="390.4319" x2="-243.1264" y2="390.2212" gradientTransform="matrix(8.7969 0 0 -10.0773 2189.9036 3977.7373)">
	<stop  offset="0" style="stop-color:#FF93CE"/>
	<stop  offset="1" style="stop-color:#EA528B"/>
</linearGradient>
<path id="jp" style="fill:url(#jp_00000002349032493514472060000008100599951550550153_);" d="M47.6,40.5c-1.4,0.2-2,0.9-1.8,2.3
	l0.8,7l8-10.1L47.6,40.5L47.6,40.5z"/>
<path id="ip" class="st11" d="M50.8,8c-0.2-1.4-0.9-2-2.3-1.8l-25.1,3c-1.4,0.2-2,0.9-1.8,2.3l2.3,19.7c3.9,3,8.4,4.2,13.4,3.6
	c5.1-0.6,9.2-2.9,12.4-6.9c1.3-1.6,2.3-3.3,2.9-5.1L50.8,8L50.8,8z"/>
<path id="hp" class="st12" d="M45.9,42.3l-0.2-0.1c0,0.2,0,0.4,0,0.7l0.8,7l0.1-0.1l-0.8-6.7C45.9,42.7,45.9,42.5,45.9,42.3z"/>
<path id="gp" class="st13" d="M45.8,42.2l0.2,0.1c0.1-1,0.7-1.5,1.9-1.7l6.7-0.8l0.1-0.1l-7,0.8C46.5,40.7,45.8,41.2,45.8,42.2z"/>
<path id="fs" class="st14" d="M35.7,11.7c-1.2-0.9-2.6-1.3-4.1-1.2c-1.5,0.2-2.7,0.9-3.7,2.1c-0.9,1.2-1.3,2.6-1.2,4.1
	c0.2,1.5,0.9,2.7,2.1,3.7c1.2,0.9,2.6,1.3,4.1,1.2c1.5-0.2,2.7-0.9,3.7-2.1c1-1.2,1.4-2.6,1.2-4.1C37.6,13.9,36.9,12.7,35.7,11.7
	 M31.7,11.5c1.3-0.2,2.4,0.2,3.4,1c1,0.8,1.6,1.8,1.7,3.1c0.2,1.3-0.2,2.4-1,3.4c-0.8,1-1.8,1.6-3.1,1.7c-1.3,0.2-2.4-0.2-3.4-1
	s-1.6-1.8-1.7-3.1c-0.2-1.3,0.2-2.4,1-3.4S30.5,11.7,31.7,11.5z"/>
<path id="ep" class="st15" d="M32.4,16l-1.4-1.5c-0.2-0.2-0.5-0.3-0.8-0.4c-0.3,0-0.6,0.1-0.8,0.3C29.1,14.7,29,15,29,15.3
	c0,0.3,0.1,0.6,0.3,0.8l2.3,2.3c0.2,0.2,0.5,0.3,0.8,0.3c0.3,0,0.6-0.1,0.8-0.3l5.4-5.3c0.2-0.2,0.3-0.5,0.4-0.8
	c0-0.3-0.1-0.6-0.3-0.8c-0.2-0.2-0.5-0.3-0.8-0.4c-0.3,0-0.6,0.1-0.8,0.3L32.4,16z"/>
<path id="dcp" class="st14" d="M37.2,24.1c-1.2-0.9-2.6-1.3-4.1-1.2c-1.5,0.2-2.7,0.9-3.7,2.1c-0.9,1.2-1.3,2.6-1.2,4.1
	c0.2,1.5,0.9,2.7,2.1,3.7c1.2,0.9,2.6,1.3,4.1,1.2c1.5-0.2,2.7-0.9,3.7-2.1c1-1.2,1.4-2.6,1.2-4.1C39.1,26.3,38.4,25.1,37.2,24.1
	 M33.2,23.9c1.3-0.2,2.4,0.2,3.4,1c1,0.8,1.6,1.8,1.7,3.1s-0.2,2.4-1,3.4c-0.8,1-1.8,1.6-3.1,1.7s-2.4-0.2-3.4-1
	c-1-0.8-1.6-1.8-1.7-3.1c-0.2-1.3,0.2-2.4,1-3.4C30.9,24.6,31.9,24.1,33.2,23.9z"/>
<path id="cp" class="st15" d="M34.4,28.2l-1.8-1C32.3,27,32,27,31.7,27c-0.3,0.1-0.5,0.2-0.7,0.5c-0.2,0.3-0.2,0.6-0.1,0.9
	c0.1,0.3,0.2,0.5,0.5,0.7l2.8,1.6c0.3,0.2,0.6,0.2,0.8,0.1c0.3-0.1,0.5-0.2,0.7-0.5l3.8-6.6c0.2-0.3,0.2-0.6,0.1-0.9
	c-0.1-0.3-0.2-0.5-0.5-0.7c-0.3-0.2-0.6-0.2-0.9-0.1s-0.5,0.2-0.7,0.5L34.4,28.2L34.4,28.2z"/>
<path id="bcp" class="st14" d="M38.7,36.6c-1.2-0.9-2.6-1.3-4.1-1.2c-1.5,0.2-2.7,0.9-3.7,2.1c-0.9,1.2-1.3,2.6-1.2,4.1
	c0.2,1.5,0.9,2.7,2.1,3.7c1.2,0.9,2.6,1.3,4.1,1.2c1.5-0.2,2.7-0.9,3.7-2.1s1.4-2.6,1.2-4.1C40.5,38.8,39.9,37.6,38.7,36.6
	 M34.7,36.4c1.3-0.2,2.4,0.2,3.4,1c1,0.8,1.6,1.8,1.7,3.1c0.2,1.3-0.2,2.4-1,3.4s-1.8,1.6-3.1,1.7c-1.3,0.2-2.4-0.2-3.4-1
	c-1-0.8-1.6-1.8-1.7-3.1c-0.2-1.3,0.2-2.4,1-3.4C32.4,37.1,33.4,36.6,34.7,36.4z"/>
<path id="ap" class="st15" d="M35.5,40.6l-1.7-1.2c-0.3-0.2-0.5-0.2-0.9-0.2c-0.3,0.1-0.5,0.2-0.7,0.5C32,40,32,40.3,32.1,40.6
	c0.1,0.3,0.2,0.5,0.5,0.7l2.7,1.8c0.2,0.2,0.5,0.2,0.8,0.2c0.3-0.1,0.5-0.2,0.7-0.5l4.3-6.3c0.2-0.3,0.2-0.5,0.2-0.9
	c-0.1-0.3-0.2-0.5-0.5-0.7c-0.3-0.2-0.5-0.2-0.9-0.2c-0.3,0.1-0.5,0.2-0.7,0.5L35.5,40.6z"/>
</svg>
